# xmcd
#
# Track frame offsets:
#	150
#	18561
#	32317
#	51662
#	63680
#	74593
#	86717
#	98686
#	118413
#	133250
#	143916
#
# Disc length: 2165 seconds
#
# Revision: 1
# Processed by: cddbd v1.5.2PL0 Copyright (c) Steve Scherf et al.
# Submitted via: audiograbber 1.83.01
#
DISCID=ab08730b
DTITLE=Alan Jackson - Precious Memories II
DYEAR=2013
DGENRE=Country
TTITLE0=Amazing Grace
TTITLE1=He Lives
TTITLE2=Just As I Am
TTITLE3=Love Lifted Me
TTITLE4=O How I Loved Jesus
TTITLE5=Only Trust Him
TTITLE6=There Is Power In The Blood
TTITLE7=Precious Memories
TTITLE8=Sweet Hour Of Prayer
TTITLE9=When The Roll Is Called Up Yonder
TTITLE10=Wherever He Leads I'll Go
EXTD=
EXTT0=
EXTT1=
EXTT2=
EXTT3=
EXTT4=
EXTT5=
EXTT6=
EXTT7=
EXTT8=
EXTT9=
EXTT10=
PLAYORDER=
